<svg xmlns="http://www.w3.org/2000/svg" viewBox="0 0 32 32" width="32" height="32">
  <rect width="32" height="32" rx="7" fill="#0d1117"/>
  <path d="M16 6c-3.3 0-5.3 1.3-5.3 4v2H16v.7H8.7c-2 0-3.4 1.3-3.4 4.6s1.3 4.7 3.4 4.7H11v-3.4c0-2 1.3-3.3 3.3-3.3H18c2 0 3.3-1.3 3.3-3.3V10c0-2.7-2-4-5.3-4Zm-2.7 2.7a1 1 0 1 1 0 2.1 1 1 0 0 1 0-2.1Z" fill="#3b82f6"/>
  <path d="M16 26c3.3 0 5.3-1.3 5.3-4v-2H16v-.7h7.3c2 0 3.4-1.3 3.4-4.6s-1.4-4.7-3.4-4.7H21v3.4c0 2-1.3 3.3-3.3 3.3H14c-2 0-3.3 1.3-3.3 3.3V22c0 2.7 2 4 5.3 4Zm2.7-2.7a1 1 0 1 1 0-2.1 1 1 0 0 1 0 2.1Z" fill="#facc15"/>
</svg>
