<svg xmlns="http://www.w3.org/2000/svg" width="1200" height="630" viewBox="0 0 1200 630">
  <defs>
    <linearGradient id="bg" x1="0" y1="0" x2="1" y2="1">
      <stop offset="0" stop-color="#0d1117"/>
      <stop offset="1" stop-color="#16243a"/>
    </linearGradient>
    <linearGradient id="accent" x1="0" y1="0" x2="1" y2="0">
      <stop offset="0" stop-color="#3b82f6"/>
      <stop offset="1" stop-color="#facc15"/>
    </linearGradient>
  </defs>
  <rect width="1200" height="630" fill="url(#bg)"/>
  <rect x="0" y="0" width="1200" height="8" fill="url(#accent)"/>

  <!-- logo -->
  <g transform="translate(90,90) scale(2.1)">
    <path d="M24 9c-5 0-8 2-8 6v3h8v1H13c-3 0-5 2-5 7s2 7 5 7h3v-5c0-3 2-5 5-5h6c3 0 5-2 5-5v-5c0-4-3-9-9-9Zm-4 4a1.6 1.6 0 1 1 0 3.2 1.6 1.6 0 0 1 0-3.2Z" fill="#3b82f6"/>
    <path d="M24 39c5 0 8-2 8-6v-3h-8v-1h11c3 0 5-2 5-7s-2-7-5-7h-3v5c0 3-2 5-5 5h-6c-3 0-5 2-5 5v5c0 4 3 9 9 9Zm4-4a1.6 1.6 0 1 1 0-3.2 1.6 1.6 0 0 1 0 3.2Z" fill="#facc15"/>
  </g>

  <text x="90" y="320" font-family="ui-sans-serif, system-ui, -apple-system, Segoe UI, Roboto, sans-serif" font-size="72" font-weight="800" fill="#ffffff">Backend Engineering,</text>
  <text x="90" y="404" font-family="ui-sans-serif, system-ui, -apple-system, Segoe UI, Roboto, sans-serif" font-size="72" font-weight="800" fill="url(#accent)">Explained.</text>

  <text x="92" y="478" font-family="ui-sans-serif, system-ui, -apple-system, Segoe UI, Roboto, sans-serif" font-size="32" font-weight="500" fill="#9fb3c8">Async Python · FastAPI · PostgreSQL · Kafka · Temporal · Docker</text>

  <text x="92" y="556" font-family="ui-monospace, SFMono-Regular, Menlo, monospace" font-size="26" fill="#5b7187">100+ real questions · explained with diagrams · free &amp; open</text>
</svg>
